<svg xmlns="http://www.w3.org/2000/svg" width="60.465" height="62.706" viewBox="0 0 60.465 62.706">
  <g id="Group_19471" data-name="Group 19471" transform="translate(576 367)">
    <rect id="Rectangle_10360" data-name="Rectangle 10360" width="5" height="5" rx="2.5" transform="translate(-545.513 -342.088)" fill="#fd0"/>
    <g id="Group_19455" data-name="Group 19455" transform="translate(-544.159 -340.93)">
      <path id="headphonesalt" d="M2.7,2.511h-.29a.1.1,0,0,1-.1-.1V1.449a.1.1,0,0,1,.1-.1h.1A.978.978,0,0,0,2.262.646a.947.947,0,0,0-.717-.26.948.948,0,0,0-.717.26.977.977,0,0,0-.249.706h.1a.1.1,0,0,1,.1.1v.966a.1.1,0,0,1-.1.1h-.1A.386.386,0,0,0,.966,2.9h.193A.191.191,0,0,1,1.352,2.7h.193a.187.187,0,0,1,.137.056.184.184,0,0,1,.056.136.19.19,0,0,1-.056.137.184.184,0,0,1-.137.057H.966a.559.559,0,0,1-.41-.169.559.559,0,0,1-.169-.41.326.326,0,0,1-.273-.169A.72.72,0,0,1,0,1.931a.777.777,0,0,1,.053-.29.524.524,0,0,1,.14-.208V1.352A1.322,1.322,0,0,1,.3.827a1.328,1.328,0,0,1,.72-.72,1.341,1.341,0,0,1,1.05,0A1.362,1.362,0,0,1,2.5.4,1.353,1.353,0,0,1,2.79.827a1.326,1.326,0,0,1,.107.525v.081a.524.524,0,0,1,.14.208.777.777,0,0,1,.053.29.721.721,0,0,1-.113.41A.326.326,0,0,1,2.7,2.511Z" transform="translate(0 0)"/>
      <path id="commentroundtyping" d="M.472.944A.458.458,0,0,1,.2.859.221.221,0,0,1,.116.921.29.29,0,0,1,0,.944Q.023.944.04.874A.816.816,0,0,0,.059.7.461.461,0,0,1,0,.472.471.471,0,0,1,.235.063.464.464,0,0,1,.472,0,.471.471,0,0,1,.881.235.464.464,0,0,1,.944.472.471.471,0,0,1,.709.881.464.464,0,0,1,.472.944ZM.3.413A.058.058,0,0,0,.254.43a.059.059,0,0,0,0,.084A.058.058,0,0,0,.3.531.056.056,0,0,0,.337.514a.059.059,0,0,0,0-.083A.056.056,0,0,0,.3.413Zm.177,0A.058.058,0,0,0,.431.43.056.056,0,0,0,.413.472.06.06,0,0,0,.473.531.059.059,0,0,0,.514.43.056.056,0,0,0,.473.413Zm.177,0a.059.059,0,1,0,0,.118A.056.056,0,0,0,.691.514a.059.059,0,0,0,0-.083A.056.056,0,0,0,.65.413Z" transform="translate(1.116 1.288)" fill="#ed1a3b"/>
    </g>
    <g id="Group_19482" data-name="Group 19482" transform="translate(-576 -367)">
      <g id="Group_19471-2" data-name="Group 19471" transform="translate(2.965 0)">
        <path id="Path_52168" data-name="Path 52168" d="M999.608,264.355c-.573-2.012-1.118-4.034-1.572-6.077q-.333-1.5-.6-3.01-.135-.788-.249-1.579c-.016-.112-.032-.225-.047-.337-.039-.278.022.175,0,0-.009-.071-.018-.142-.028-.213q-.052-.407-.1-.815a60.036,60.036,0,0,1-.369-6.888q0-.594.042-1.188.02-.289.049-.578.013-.128.028-.257.009-.08.019-.16c.005-.042.036-.282.009-.077s.018-.12.026-.173q.022-.144.046-.288.051-.3.112-.607.119-.593.274-1.178a21.31,21.31,0,0,1,.763-2.324q.055-.14.112-.279l.051-.124c.088-.216-.084.191-.021.048.087-.194.17-.39.259-.583q.269-.584.57-1.152a24.5,24.5,0,0,1,1.3-2.175q.348-.519.721-1.02c.069-.093.14-.186.21-.278.038-.05.131-.158-.045.058.029-.036.057-.074.086-.11q.217-.276.441-.546a27.056,27.056,0,0,1,3.75-3.7l.226-.181c.056-.044.356-.318.119-.1a5.509,5.509,0,0,1,.523-.393q.56-.41,1.14-.792,1.14-.75,2.351-1.385.61-.32,1.237-.609.289-.133.581-.26c.019-.008.246-.11.075-.033s.057-.023.076-.031l.349-.141a26.769,26.769,0,0,1,5.444-1.524c.231-.039.463-.074.7-.108.2-.029-.033,0-.061.008.064-.012.13-.017.195-.025l.391-.046q.73-.08,1.463-.12a26.724,26.724,0,0,1,2.973,0q.752.043,1.5.128l.313.038c.051.006.1.011.156.02-.282-.052-.094-.012-.022,0q.367.053.733.115a26.811,26.811,0,0,1,5.438,1.538l.348.142c.057.024.185.092-.057-.024.045.021.092.039.138.059q.344.149.683.307.608.283,1.2.6,1.207.637,2.347,1.391.579.383,1.138.795l.233.174.145.11c.073.055.2.093-.023-.018a3.412,3.412,0,0,1,.538.429q1.028.842,1.971,1.781.928.924,1.762,1.936.19.23.374.464c.016.02.151.208.042.054s.026.034.041.054q.105.139.209.279.382.516.737,1.051a24.447,24.447,0,0,1,1.291,2.179q.29.554.551,1.123c.083.183.154.374.244.553-.152-.3,0,0,.03.076q.063.155.123.31a21.2,21.2,0,0,1,.763,2.357q.148.569.262,1.146.057.287.1.575.024.144.046.288l.023.16c.031.21-.033-.264,0-.038a33.773,33.773,0,0,1,.048,6q-.094,1.654-.282,3.3-.044.386-.094.771a.962.962,0,0,1-.022.17c.069-.2.017-.122.005-.04q-.029.211-.059.421-.115.79-.251,1.577c-.351,2.022-.811,4.023-1.331,6.008-.262,1-.539,2-.822,3a1.107,1.107,0,1,0,2.134.588,78.072,78.072,0,0,0,2.674-12.664,57.994,57.994,0,0,0,.364-6.974,20.229,20.229,0,0,0-.709-5.062,24.955,24.955,0,0,0-4.992-9.367,28.288,28.288,0,0,0-20.119-10.087,27.573,27.573,0,0,0-11.749,1.949,28.854,28.854,0,0,0-9.517,6.232,26.335,26.335,0,0,0-5.976,8.981,20.641,20.641,0,0,0-1.266,4.78,32.873,32.873,0,0,0-.112,6.279,64.926,64.926,0,0,0,2.1,12.854c.268,1.029.553,2.055.844,3.078a1.107,1.107,0,1,0,2.134-.588Z" transform="translate(-994.435 -220.751)" fill="#3b3b4a"/>
      </g>
      <g id="Group_19472" data-name="Group 19472" transform="translate(14.196 3.794)">
        <path id="Path_52169" data-name="Path 52169" d="M1234.494,296.937a24.278,24.278,0,0,0-31.59,0,.833.833,0,0,0,0,1.173.851.851,0,0,0,1.173,0q.293-.248.592-.487l.11-.087c.019-.015.2-.158.053-.042q.167-.128.336-.253.611-.451,1.25-.863a23.739,23.739,0,0,1,2.694-1.5q.345-.164.7-.316l.168-.072c.131-.056-.18.073.038-.015.136-.055.271-.111.408-.164q.757-.3,1.532-.539a23.232,23.232,0,0,1,3.151-.749q.189-.031.379-.059l.19-.027c.148-.022-.2.024.047-.006.282-.035.565-.067.848-.093q.863-.079,1.73-.093a24,24,0,0,1,3.376.186c.166.021.043.006.009,0l.229.033q.19.028.379.059.414.068.825.151.812.164,1.612.387.769.214,1.523.48.364.129.724.27.171.067.34.136l.169.07-.03-.013.134.058a23.688,23.688,0,0,1,3.059,1.606q.722.449,1.41.948.171.124.339.251l.167.127c-.148-.113.052.041.081.064q.342.27.674.552a.83.83,0,0,0,1.173-1.173Z" transform="translate(-1202.662 -291.096)" fill="#19181d"/>
      </g>
      <g id="Group_19473" data-name="Group 19473" transform="translate(30.417 33.41)">
        <path id="Path_52170" data-name="Path 52170" d="M1504.255,867.534a27.5,27.5,0,0,0,8.256-1.979,28.675,28.675,0,0,0,7.081-4.221,27.971,27.971,0,0,0,5.307-5.719,25.276,25.276,0,0,0,3.336-6.685,20.784,20.784,0,0,0,1.029-7.059q-.015-.424-.049-.847a.83.83,0,1,0-1.66,0,18.615,18.615,0,0,1-.037,3.378q-.021.207-.046.414c0,.037-.009.073-.014.11-.016.132.006-.056.008-.055s-.029.207-.031.22q-.064.428-.145.854-.162.844-.393,1.673-.237.852-.54,1.683-.153.419-.322.832c-.025.062-.048.126-.077.187.1-.209-.011.024-.03.068q-.092.213-.189.424a25.079,25.079,0,0,1-1.739,3.171q-.5.768-1.043,1.5l-.145.192-.055.072c-.069.093.091-.115.019-.025-.1.126-.2.254-.3.379q-.3.366-.6.722a27.422,27.422,0,0,1-2.666,2.676q-.363.317-.737.622-.17.138-.341.273c-.048.038-.224.175-.079.062l-.2.152q-.778.588-1.6,1.12a27.225,27.225,0,0,1-3.433,1.9q-.22.1-.441.2l-.208.09c-.025.011-.153.065-.05.022s-.058.024-.08.033q-.466.193-.938.368-.939.348-1.9.625-.992.285-2,.492-.512.1-1.027.189-.251.041-.5.078l-.159.023c.106-.014-.008,0-.025,0l-.2.026q-.511.062-1.025.1a.83.83,0,1,0,0,1.66Z" transform="translate(-1503.425 -840.194)" fill="#19181d"/>
      </g>
      <g id="Group_19474" data-name="Group 19474" transform="translate(50.466 30.419)">
        <path id="Path_52171" data-name="Path 52171" d="M1883.445,788.324l-2.361,12.146a3,3,0,0,1-5.89-1.145l2.361-12.146a3,3,0,1,1,5.89,1.145Z" transform="translate(-1875.138 -784.75)" fill="#19181d"/>
        <path id="Path_52172" data-name="Path 52172" d="M1990,861.329a7.393,7.393,0,0,1-3.856,5.332l2.278-11.721A7.393,7.393,0,0,1,1990,861.329Z" transform="translate(-1980.156 -851.154)" fill="#ed1a3b"/>
      </g>
      <g id="Group_19475" data-name="Group 19475" transform="translate(0 30.419)">
        <path id="Path_52173" data-name="Path 52173" d="M969.872,788.324l2.361,12.146a3,3,0,0,0,5.89-1.145l-2.361-12.146a3,3,0,1,0-5.89,1.145Z" transform="translate(-968.179 -784.75)" fill="#19181d"/>
        <path id="Path_52174" data-name="Path 52174" d="M939.615,861.329a7.393,7.393,0,0,0,3.856,5.332l-2.278-11.721A7.393,7.393,0,0,0,939.615,861.329Z" transform="translate(-939.459 -851.154)" fill="#ed1a3b"/>
      </g>
      <path id="Rectangle_10361" data-name="Rectangle 10361" d="M2.186,0h3.1A1.361,1.361,0,0,1,6.644,1.361V3.01A1.361,1.361,0,0,1,5.283,4.371h-3.1A2.186,2.186,0,0,1,0,2.186v0A2.186,2.186,0,0,1,2.186,0Z" transform="translate(28.061 58.393) rotate(-9.387)" fill="#19181d"/>
      <g id="Group_19476" data-name="Group 19476" transform="translate(28.982 59.98)">
        <path id="Path_52175" data-name="Path 52175" d="M1478.746,1334.046a1.205,1.205,0,0,1-.981-.1,1.243,1.243,0,0,1-.409-.91c-.058-.349-.589-.2-.532.147a1.669,1.669,0,0,0,.663,1.239,1.815,1.815,0,0,0,1.406.156c.349-.058.2-.589-.146-.532Z" transform="translate(-1476.819 -1332.836)" fill="#3b3b4a"/>
      </g>
      <g id="Group_19477" data-name="Group 19477" transform="translate(31.614 60.977)">
        <path id="Path_52176" data-name="Path 52176" d="M1526.161,1351.33l-.348.057a.277.277,0,0,0-.193.339.284.284,0,0,0,.339.193l.348-.057a.277.277,0,0,0,.192-.339.283.283,0,0,0-.339-.193Z" transform="translate(-1525.61 -1351.325)" fill="#3b3b4a"/>
      </g>
      <g id="Group_19480" data-name="Group 19480" transform="translate(13.102 13.071)">
        <ellipse id="Ellipse_2162" data-name="Ellipse 2162" cx="16.601" cy="13.362" rx="16.601" ry="13.362" transform="matrix(0.999, -0.041, 0.041, 0.999, 0, 1.347)" fill="#ed1a3b"/>
        <path id="Path_52177" data-name="Path 52177" d="M1210.693,811.994l6.239,15.109,7.834-6.734Z" transform="translate(-1209.166 -793.176)" fill="#ed1a3b"/>
        <g id="Group_19478" data-name="Group 19478" transform="translate(20.217 2.73)">
          <path id="Path_52178" data-name="Path 52178" d="M1559.969,515.479a.248.248,0,0,1-.08-.01,16.757,16.757,0,0,0-2.3-.667.421.421,0,0,1-.269-.2.693.693,0,0,1-.088-.508.557.557,0,0,1,.57-.377.687.687,0,0,1,.144.015,15.712,15.712,0,0,1,2.154.626.6.6,0,0,1,.429.727.594.594,0,0,1-.253.313.677.677,0,0,1-.31.08Z" transform="translate(-1557.22 -513.719)" fill="#f0b706"/>
        </g>
        <g id="Group_19479" data-name="Group 19479" transform="translate(4.78 2.368)">
          <path id="Path_52179" data-name="Path 52179" d="M1271.534,513.5a.562.562,0,0,1-.524-.562.685.685,0,0,1,.207-.445,11.827,11.827,0,0,1,1.739-1.8,15.286,15.286,0,0,1,4.616-2.644,17.473,17.473,0,0,1,5.252-1.026h.019a.582.582,0,0,1,.521.585.452.452,0,0,1-.127.326.68.68,0,0,1-.457.213c-.5.021-1,.063-1.5.124h-.01a17.344,17.344,0,0,0-2.495.547c-.369.111-.738.235-1.1.371-.109.041-.219.084-.328.128h0v0l-.141.059h0l-.01,0-.017.007c-.121.053-.239.108-.354.162l-.018.008a15.214,15.214,0,0,0-1.932,1.081c-.154.1-.308.208-.458.316-.074.053-.149.108-.223.163l-.059.045-.005,0c-.306.245-.557.459-.788.672a12.708,12.708,0,0,0-1.423,1.547.592.592,0,0,1-.377.116Z" transform="translate(-1271.01 -507.02)" fill="#f0b706"/>
        </g>
      </g>
      <g id="Group_19481" data-name="Group 19481" transform="translate(22.843 21.491)">
        <path id="Path_52180" data-name="Path 52180" d="M1377.382,631.343a1.105,1.105,0,0,1-.357.106,12.146,12.146,0,0,1-5.766-.657,13.407,13.407,0,0,1-4.985-3.328,12.232,12.232,0,0,1-2.891-5.077,10.932,10.932,0,0,1-.356-1.66,1.348,1.348,0,0,1,.047-.83.714.714,0,0,1,.3-.276,1.483,1.483,0,0,1,.587-.142c.379-.022.745-.067,1.054-.109.233-.031.465-.058.7-.085l.315-.036a1.588,1.588,0,0,1,.5-.014.871.871,0,0,1,.622.52c.086.226.155.469.228.727.035.126.071.251.108.375l.456,1.492a1.532,1.532,0,0,1,.087.64,1.318,1.318,0,0,1-.336.7,1.58,1.58,0,0,1-.162.137,1.38,1.38,0,0,0-.656,1.3,1.408,1.408,0,0,0,.5.906c.157.133.312.267.467.4a20.063,20.063,0,0,0,2.187,1.713c.065.042.136.1.212.155a2.658,2.658,0,0,0,.664.407,1.442,1.442,0,0,0,1.139-.025,1.041,1.041,0,0,0,.272-.2,1.735,1.735,0,0,0,.333-.555,1.474,1.474,0,0,1,.073-.157,1.994,1.994,0,0,1,.3-.383,1.009,1.009,0,0,1,.216-.15,1.367,1.367,0,0,1,.681-.136c.683.028,1.381.068,2.056.108l.652.037a.849.849,0,0,1,.76.515,1.767,1.767,0,0,1,.094.474c.006.049.011.1.017.146q.1.762.193,1.525c.01.081.021.16.033.239a1.671,1.671,0,0,1-.008.879l-.006.014-.014.023a.773.773,0,0,1-.31.295Z" transform="translate(-1362.989 -619.22)" fill="#fff"/>
      </g>
    </g>
  </g>
</svg>
